<svg xmlns="http://www.w3.org/2000/svg" xmlns:xlink="http://www.w3.org/1999/xlink" width="40" zoomAndPan="magnify" viewBox="0 0 30 30.000001" height="40" preserveAspectRatio="xMidYMid meet" version="1.0"><defs><clipPath id="9c5ef57114"><path d="M 14 2.679688 L 28.921875 2.679688 L 28.921875 17 L 14 17 Z M 14 2.679688 " clip-rule="nonzero"/></clipPath><clipPath id="501842a82a"><path d="M 1.339844 16 L 5 16 L 5 24 L 1.339844 24 Z M 1.339844 16 " clip-rule="nonzero"/></clipPath><clipPath id="a5d7952df0"><path d="M 6 14 L 28.921875 14 L 28.921875 26 L 6 26 Z M 6 14 " clip-rule="nonzero"/></clipPath></defs><g clip-path="url(#9c5ef57114)"><path fill="#9a031e" d="M 21.585938 16.800781 C 25.480469 16.800781 28.648438 13.632812 28.648438 9.738281 C 28.648438 5.847656 25.480469 2.679688 21.585938 2.679688 C 17.691406 2.679688 14.523438 5.847656 14.523438 9.738281 C 14.523438 13.632812 17.691406 16.800781 21.585938 16.800781 Z M 22.371094 10.523438 L 20.800781 10.523438 C 19.503906 10.523438 18.449219 9.46875 18.449219 8.171875 C 18.449219 6.871094 19.503906 5.816406 20.800781 5.816406 L 20.800781 4.246094 L 22.371094 4.246094 L 22.371094 5.816406 C 23.667969 5.816406 24.726562 6.871094 24.726562 8.171875 L 23.15625 8.171875 C 23.15625 7.738281 22.804688 7.386719 22.371094 7.386719 L 20.800781 7.386719 C 20.371094 7.386719 20.015625 7.738281 20.015625 8.171875 C 20.015625 8.601562 20.371094 8.957031 20.800781 8.957031 L 22.371094 8.957031 C 23.667969 8.957031 24.726562 10.011719 24.726562 11.308594 C 24.726562 12.605469 23.667969 13.664062 22.371094 13.664062 L 22.371094 15.230469 L 20.800781 15.230469 L 20.800781 13.664062 C 19.503906 13.664062 18.449219 12.605469 18.449219 11.308594 L 20.015625 11.308594 C 20.015625 11.742188 20.371094 12.09375 20.800781 12.09375 L 22.371094 12.09375 C 22.804688 12.09375 23.15625 11.742188 23.15625 11.308594 C 23.15625 10.875 22.804688 10.523438 22.371094 10.523438 Z M 22.371094 10.523438 " fill-opacity="1" fill-rule="nonzero"/></g><g clip-path="url(#501842a82a)"><path fill="#004540" d="M 1.339844 16.238281 L 4.480469 16.238281 L 4.480469 23.300781 L 1.339844 23.300781 Z M 1.339844 16.238281 " fill-opacity="1" fill-rule="nonzero"/></g><g clip-path="url(#a5d7952df0)"><path fill="#004540" d="M 24.097656 18.117188 L 18.859375 20.945312 L 10.808594 20.945312 L 10.808594 19.378906 L 18.65625 19.378906 L 18.65625 18.59375 C 18.65625 17.292969 17.601562 16.238281 16.300781 16.238281 L 13.460938 16.238281 C 12.875 15.753906 11.335938 14.671875 9.238281 14.671875 C 7.949219 14.671875 6.824219 15.078125 6.046875 15.507812 L 6.046875 23.484375 L 16.410156 25.65625 L 28.121094 19.699219 C 28.121094 19.699219 27.707031 18.972656 27.703125 18.964844 C 26.988281 17.738281 25.339844 17.425781 24.097656 18.117188 Z M 24.097656 18.117188 " fill-opacity="1" fill-rule="nonzero"/></g></svg>