<svg xmlns="http://www.w3.org/2000/svg" xmlns:xlink="http://www.w3.org/1999/xlink" width="40" zoomAndPan="magnify" viewBox="0 0 30 30.000001" height="40" preserveAspectRatio="xMidYMid meet" version="1.0"><defs><clipPath id="103341374b"><path d="M 1.171875 4 L 23 4 L 23 28.269531 L 1.171875 28.269531 Z M 1.171875 4 " clip-rule="nonzero"/></clipPath><clipPath id="390706468d"><path d="M 15 0.691406 L 28.753906 0.691406 L 28.753906 14 L 15 14 Z M 15 0.691406 " clip-rule="nonzero"/></clipPath></defs><g clip-path="url(#103341374b)"><path fill="#9a031e" d="M 1.902344 28.339844 C 1.542969 28.339844 1.242188 28.082031 1.183594 27.726562 C 1.125 27.371094 1.332031 27.035156 1.671875 26.921875 C 3.898438 26.179688 4.992188 24.929688 5.292969 24.074219 C 2.707031 22.027344 1.171875 18.890625 1.171875 15.578125 C 1.171875 9.609375 6.027344 4.753906 11.996094 4.753906 C 13.671875 4.753906 15.273438 5.128906 16.757812 5.855469 C 17.117188 6.035156 17.269531 6.472656 17.089844 6.832031 C 16.910156 7.191406 16.472656 7.339844 16.113281 7.160156 C 14.828125 6.53125 13.441406 6.203125 11.992188 6.203125 C 6.824219 6.203125 2.625 10.40625 2.625 15.570312 C 2.625 18.578125 4.078125 21.421875 6.523438 23.175781 C 6.710938 23.3125 6.824219 23.53125 6.824219 23.769531 L 6.824219 23.847656 C 6.738281 24.757812 6.128906 25.84375 4.976562 26.78125 C 14.988281 26.132812 21.035156 22.222656 21.351562 16.050781 C 21.371094 15.648438 21.703125 15.339844 22.113281 15.363281 C 22.515625 15.382812 22.820312 15.726562 22.800781 16.125 C 22.414062 23.769531 14.601562 28.332031 1.894531 28.332031 Z M 1.902344 28.339844 " fill-opacity="1" fill-rule="nonzero"/></g><path fill="#004540" d="M 6.703125 17.75 C 5.53125 17.75 4.574219 16.792969 4.574219 15.621094 C 4.574219 14.445312 5.53125 13.492188 6.703125 13.492188 C 7.878906 13.492188 8.832031 14.445312 8.832031 15.621094 C 8.832031 16.792969 7.878906 17.75 6.703125 17.75 Z M 6.703125 14.945312 C 6.328125 14.945312 6.027344 15.246094 6.027344 15.621094 C 6.027344 15.992188 6.328125 16.292969 6.703125 16.292969 C 7.078125 16.292969 7.378906 15.992188 7.378906 15.621094 C 7.378906 15.246094 7.078125 14.945312 6.703125 14.945312 Z M 6.703125 14.945312 " fill-opacity="1" fill-rule="nonzero"/><path fill="#004540" d="M 12 17.75 C 10.824219 17.75 9.871094 16.792969 9.871094 15.621094 C 9.871094 14.445312 10.824219 13.492188 12 13.492188 C 13.171875 13.492188 14.128906 14.445312 14.128906 15.621094 C 14.128906 16.792969 13.171875 17.75 12 17.75 Z M 12 14.945312 C 11.625 14.945312 11.324219 15.246094 11.324219 15.621094 C 11.324219 15.992188 11.625 16.292969 12 16.292969 C 12.375 16.292969 12.675781 15.992188 12.675781 15.621094 C 12.675781 15.246094 12.375 14.945312 12 14.945312 Z M 12 14.945312 " fill-opacity="1" fill-rule="nonzero"/><path fill="#004540" d="M 17.292969 17.75 C 16.121094 17.75 15.164062 16.792969 15.164062 15.621094 C 15.164062 14.445312 16.121094 13.492188 17.292969 13.492188 C 18.46875 13.492188 19.421875 14.445312 19.421875 15.621094 C 19.421875 16.792969 18.46875 17.75 17.292969 17.75 Z M 17.292969 14.945312 C 16.917969 14.945312 16.617188 15.246094 16.617188 15.621094 C 16.617188 15.992188 16.917969 16.292969 17.292969 16.292969 C 17.667969 16.292969 17.96875 15.992188 17.96875 15.621094 C 17.96875 15.246094 17.667969 14.945312 17.292969 14.945312 Z M 17.292969 14.945312 " fill-opacity="1" fill-rule="nonzero"/><g clip-path="url(#390706468d)"><path fill="#9a031e" d="M 22.246094 0.6875 C 18.617188 0.6875 15.664062 3.636719 15.664062 7.265625 C 15.664062 10.894531 18.617188 13.847656 22.246094 13.847656 C 25.871094 13.847656 28.820312 10.894531 28.820312 7.265625 C 28.820312 3.636719 25.871094 0.6875 22.246094 0.6875 Z M 25.324219 6.171875 L 22.097656 9.394531 C 21.957031 9.535156 21.773438 9.609375 21.585938 9.609375 C 21.394531 9.609375 21.214844 9.535156 21.070312 9.394531 L 19.160156 7.484375 C 18.875 7.199219 18.875 6.738281 19.160156 6.453125 C 19.441406 6.171875 19.902344 6.171875 20.1875 6.453125 L 21.585938 7.855469 L 24.296875 5.140625 C 24.582031 4.855469 25.042969 4.855469 25.324219 5.140625 C 25.609375 5.421875 25.609375 5.882812 25.324219 6.171875 Z M 25.324219 6.171875 " fill-opacity="1" fill-rule="nonzero"/></g></svg>