<?xml version="1.0" encoding="UTF-8"?>
<svg xmlns="http://www.w3.org/2000/svg" xmlns:xlink="http://www.w3.org/1999/xlink" viewBox="0 0 364.76 105.36">
  <defs>
    <style>
      .cls-1 {
        fill: #d0d1d3;
      }

      .cls-1, .cls-2, .cls-3, .cls-4, .cls-5, .cls-6, .cls-7, .cls-8, .cls-9, .cls-10, .cls-11, .cls-12, .cls-13, .cls-14, .cls-15, .cls-16, .cls-17, .cls-18, .cls-19, .cls-20, .cls-21, .cls-22, .cls-23, .cls-24, .cls-25, .cls-26 {
        stroke-width: 0px;
      }

      .cls-1, .cls-2, .cls-4, .cls-5, .cls-6, .cls-7, .cls-8, .cls-10, .cls-11, .cls-12, .cls-13, .cls-14, .cls-16, .cls-17, .cls-18, .cls-20, .cls-21, .cls-22, .cls-23, .cls-24, .cls-25 {
        fill-rule: evenodd;
      }

      .cls-2 {
        fill: #6d706f;
      }

      .cls-3 {
        fill: url(#linear-gradient);
      }

      .cls-4 {
        fill: #575a59;
      }

      .cls-27 {
        isolation: isolate;
      }

      .cls-5 {
        fill: #404144;
      }

      .cls-6 {
        fill: #babbbd;
      }

      .cls-7 {
        fill: #4c4d4f;
      }

      .cls-8 {
        fill: #f3f3f3;
      }

      .cls-9 {
        fill: #fff;
      }

      .cls-10 {
        fill: #282c2f;
      }

      .cls-11 {
        fill: #e8e8e8;
      }

      .cls-12 {
        fill: #33373a;
      }

      .cls-13 {
        fill: url(#linear-gradient-2);
      }

      .cls-14 {
        fill: #c5c6c8;
      }

      .cls-15 {
        fill: url(#linear-gradient-3);
      }

      .cls-16 {
        fill: #828385;
      }

      .cls-17 {
        fill: #797a7c;
      }

      .cls-18 {
        fill: #626564;
      }

      .cls-19 {
        fill: #0e265b;
      }

      .cls-20 {
        fill: #979b9a;
      }

      .cls-21 {
        fill: #1c2023;
      }

      .cls-22 {
        fill: #a3a6a7;
      }

      .cls-28 {
        mask: url(#mask);
      }

      .cls-23 {
        fill: #b0b1b3;
      }

      .cls-24 {
        fill: #dbdedf;
      }

      .cls-25 {
        fill: #8d9091;
      }

      .cls-26 {
        fill: url(#linear-gradient-4);
      }

      .cls-29 {
        mix-blend-mode: multiply;
      }
    </style>
    <linearGradient id="linear-gradient" x1="111.98" y1="98.97" x2="318.18" y2="98.97" gradientUnits="userSpaceOnUse">
      <stop offset="0" stop-color="#eb482c"/>
      <stop offset="1" stop-color="#af2051"/>
    </linearGradient>
    <linearGradient id="linear-gradient-2" x1="236.07" y1="30.99" x2="249.82" y2="30.99" xlink:href="#linear-gradient"/>
    <linearGradient id="linear-gradient-3" x1="-5247.17" y1="490.21" x2="-5263.13" y2="414.37" gradientTransform="translate(-4177.52 332.16) rotate(171.07) scale(.81 -.86)" gradientUnits="userSpaceOnUse">
      <stop offset="0" stop-color="#231f20"/>
      <stop offset="1" stop-color="#fff"/>
    </linearGradient>
    <mask id="mask" x="6.39" y="-2.35" width="107.34" height="109.89" maskUnits="userSpaceOnUse">
      <polygon class="cls-15" points="24.85 107.55 113.73 93.6 98.58 -2.35 63.57 18.75 24.85 107.55"/>
    </mask>
    <linearGradient id="linear-gradient-4" x1="63.51" y1="-11.24" x2="39.09" y2="77.92" gradientUnits="userSpaceOnUse">
      <stop offset="0" stop-color="#66003f"/>
      <stop offset=".33" stop-color="#c21d30"/>
      <stop offset=".62" stop-color="#ff5746"/>
      <stop offset="1" stop-color="#ff9116"/>
    </linearGradient>
  </defs>
  <g class="cls-27">
    <g id="Layer_2" data-name="Layer 2">
      <g id="Layer_1-2" data-name="Layer 1">
        <g>
          <g>
            <path class="cls-19" d="M86.94,28.82c.37.81.55,1.68.55,2.62s-.19,1.81-.55,2.62c-.37.81-.86,1.51-1.47,2.1-.62.59-1.35,1.06-2.21,1.4s-1.76.52-2.69.52c-1.97,0-3.61-.65-4.94-1.95-1.33-1.3-1.99-2.86-1.99-4.68,0-.88.17-1.73.52-2.54.34-.81.83-1.51,1.47-2.1.64-.59,1.38-1.07,2.21-1.44.84-.37,1.74-.55,2.73-.55.93,0,1.83.17,2.69.52.86.34,1.6.81,2.21,1.4.61.59,1.11,1.29,1.47,2.1Z"/>
            <rect class="cls-19" x="74.52" y="43.16" width="12.09" height="36.71"/>
          </g>
          <path class="cls-19" d="M117.79,54c-.98-.93-2.14-1.72-3.46-2.36-1.33-.64-2.73-.96-4.2-.96-1.13,0-2.17.22-3.13.66s-1.44,1.21-1.44,2.29.53,1.77,1.59,2.21c1.05.44,2.76.93,5.12,1.47,1.38.29,2.76.71,4.17,1.25,1.4.54,2.66,1.25,3.79,2.14s2.04,1.97,2.73,3.24c.69,1.28,1.03,2.8,1.03,4.57,0,2.31-.47,4.26-1.4,5.86-.93,1.6-2.15,2.89-3.65,3.87-1.5.98-3.18,1.7-5.05,2.14s-3.73.66-5.6.66c-3,0-5.94-.48-8.81-1.44-2.88-.96-5.27-2.37-7.19-4.24l6.78-7.15c1.08,1.18,2.41,2.16,3.98,2.95,1.57.79,3.24,1.18,5.01,1.18.98,0,1.96-.23,2.91-.7.96-.47,1.44-1.29,1.44-2.47s-.59-1.96-1.77-2.51c-1.18-.54-3.02-1.11-5.53-1.7-1.28-.29-2.56-.69-3.83-1.18-1.28-.49-2.42-1.15-3.43-1.99-1.01-.83-1.83-1.87-2.47-3.1-.64-1.23-.96-2.7-.96-4.42,0-2.21.46-4.09,1.4-5.64.93-1.55,2.14-2.81,3.61-3.8,1.47-.98,3.11-1.71,4.9-2.17,1.79-.47,3.58-.7,5.35-.7,2.75,0,5.44.43,8.07,1.29,2.63.86,4.85,2.15,6.67,3.87l-6.63,6.86Z"/>
          <path class="cls-19" d="M162.8,52.7c-.61-2.43-1.58-4.44-2.91-6.04s-3.06-2.78-5.2-3.54c-2.13-.76-4.75-1.14-7.85-1.14s-5.93.51-8.81,1.55c-2.87,1.03-5.39,2.58-7.55,4.64l6.11,6.56c1.14-1.03,2.5-1.92,4.1-2.65,1.59-.74,3.25-1.11,4.97-1.11,1.87,0,3.44.43,4.72,1.29,1.28.86,1.92,2.2,1.92,4.02v.59c-2.66,0-5.38.15-8.19.44-2.8.3-5.34.89-7.63,1.77-2.28.89-4.15,2.14-5.6,3.76-1.45,1.62-2.17,3.76-2.17,6.41,0,2.17.41,3.99,1.25,5.46.84,1.47,1.9,2.65,3.21,3.54,1.3.88,2.74,1.52,4.31,1.92,1.57.39,3.1.59,4.57.59,2.21,0,4.26-.42,6.16-1.26,1.89-.83,3.3-2.01,4.23-3.54h.23v3.91h11.05v-18.5c0-3.35-.3-6.23-.92-8.67ZM152.67,65.13c0,2.31-.66,4.14-1.96,5.49-1.3,1.35-3.18,2.03-5.64,2.03-.59,0-1.2-.07-1.84-.19-.64-.12-1.21-.33-1.7-.63-.49-.29-.89-.68-1.21-1.17-.32-.5-.48-1.09-.48-1.77,0-1.08.34-1.96,1.03-2.62.69-.66,1.56-1.17,2.62-1.51,1.05-.35,2.26-.58,3.61-.7,1.35-.12,2.69-.19,4.02-.19h1.55v1.26Z"/>
          <polygon class="cls-19" points="219.45 79.87 207.29 79.87 200.07 57.02 199.92 57.02 192.84 79.87 180.68 79.87 168 43.16 181.04 43.16 187.38 66.38 187.61 66.38 194.17 43.16 206.33 43.16 213.11 66.38 213.26 66.38 219.68 43.16 232.21 43.16 219.45 79.87"/>
          <g>
            <path class="cls-19" d="M249.5,28.82c.37.81.55,1.68.55,2.62s-.19,1.81-.55,2.62c-.37.81-.86,1.51-1.47,2.1-.62.59-1.35,1.06-2.21,1.4s-1.76.52-2.69.52c-1.97,0-3.61-.65-4.94-1.95-1.33-1.3-1.99-2.86-1.99-4.68,0-.88.17-1.73.52-2.54.34-.81.83-1.51,1.47-2.1.64-.59,1.38-1.07,2.21-1.44.84-.37,1.74-.55,2.73-.55.93,0,1.83.17,2.69.52.86.34,1.6.81,2.21,1.4.61.59,1.11,1.29,1.47,2.1Z"/>
            <rect class="cls-19" x="237.07" y="43.16" width="12.09" height="36.71"/>
          </g>
          <polygon class="cls-19" points="256.53 79.87 256.53 70.44 273.78 52.45 257.2 52.45 257.2 43.16 288.53 43.16 288.53 52.23 270.76 70.51 289.27 70.51 289.27 79.87 256.53 79.87"/>
          <path class="cls-19" d="M331.55,53.55c-.91-2.45-2.18-4.54-3.8-6.26-1.62-1.72-3.56-3.04-5.82-3.95-2.26-.91-4.75-1.36-7.45-1.36s-5.4.47-7.81,1.4c-2.41.93-4.5,2.25-6.27,3.94-1.77,1.7-3.17,3.76-4.2,6.2-1.03,2.43-1.55,5.14-1.55,8.14s.53,5.85,1.59,8.26c1.05,2.41,2.5,4.43,4.35,6.08,1.84,1.65,3.99,2.9,6.45,3.76,2.45.86,5.06,1.29,7.81,1.29,3.74,0,7.02-.68,9.84-2.03,2.83-1.35,5.1-3.28,6.82-5.78l-8.4-5.31c-.84,1.13-1.92,2.05-3.25,2.76-1.32.72-2.94,1.07-4.86,1.07-1.08,0-2.13-.17-3.14-.51-1-.35-1.91-.83-2.72-1.44-.81-.62-1.48-1.34-1.99-2.18-.52-.83-.83-1.77-.92-2.8h26.61c.05-.44.07-.91.07-1.4v-1.47c0-3.15-.45-5.95-1.36-8.41ZM306.23,57.31c.04-.93.29-1.83.73-2.69.45-.86,1.04-1.61,1.77-2.25.74-.64,1.6-1.14,2.58-1.51s2.07-.55,3.25-.55c2.4,0,4.21.69,5.41,2.06,1.21,1.38,1.81,3.03,1.81,4.94h-15.55Z"/>
          <path class="cls-19" d="M364.24,53.04c-.54-.15-1.07-.25-1.58-.29-.52-.05-1.02-.07-1.51-.07-1.62,0-2.99.29-4.09.88s-1.99,1.3-2.65,2.14c-.66.84-1.14,1.75-1.44,2.73-.29.98-.44,1.84-.44,2.58v18.87h-12.09v-36.71h11.65v5.31h.15c.93-1.87,2.26-3.39,3.98-4.57s3.71-1.77,5.97-1.77c.49,0,.97.03,1.44.07.47.05.85.12,1.14.22l-.52,10.62Z"/>
          <path class="cls-3" d="M113.33,94.66v2.13h3.46v1.27h-3.46v2.96h3.56v1.27h-4.91v-8.9h4.91v1.27h-3.56ZM125.14,92.58v9.72h-1.31v-.6c-.28.27-.55.47-.82.59-.27.12-.58.18-.91.18-.38,0-.74-.08-1.06-.23-.33-.15-.61-.36-.85-.63s-.43-.58-.56-.95c-.13-.36-.2-.76-.2-1.19s.07-.81.2-1.17c.13-.36.32-.67.55-.93.24-.26.52-.47.84-.62.32-.15.67-.23,1.05-.23s.67.06.94.19c.27.13.54.33.82.62v-4.76h1.31ZM122.31,97.7c-.22,0-.43.04-.62.13-.19.09-.36.21-.5.37-.14.16-.25.34-.33.56-.08.21-.12.45-.12.7,0,.54.15.98.44,1.32s.66.51,1.12.51c.48,0,.87-.17,1.17-.5.3-.33.45-.76.45-1.29s-.15-.96-.44-1.3c-.29-.33-.68-.5-1.17-.5ZM129.41,99.9c0,.48.09.83.27,1.06s.46.34.84.34.65-.11.82-.34.26-.58.26-1.06v-3.22h1.31v3.26c0,.44-.04.8-.13,1.07-.09.27-.24.52-.46.75-.46.47-1.06.71-1.82.71s-1.35-.24-1.81-.71c-.21-.23-.37-.48-.45-.75-.09-.27-.13-.63-.13-1.07v-3.26h1.31v3.22ZM140.22,98.64c-.3-.36-.57-.6-.8-.74s-.5-.2-.81-.2c-.25,0-.48.05-.69.14-.21.09-.39.22-.54.38s-.27.35-.35.56c-.08.22-.13.45-.13.71s.04.51.13.73c.08.22.2.41.35.57.15.16.32.28.53.37.21.09.43.13.67.13.32,0,.6-.07.83-.2.23-.14.5-.39.81-.76v1.72c-.29.15-.56.26-.79.32s-.5.09-.8.09c-.44,0-.84-.08-1.21-.23-.37-.15-.69-.36-.96-.62s-.49-.57-.64-.93-.23-.75-.23-1.17.08-.81.24-1.17c.16-.37.37-.68.65-.95.27-.27.6-.48.97-.63.37-.16.77-.23,1.2-.23.3,0,.58.03.82.09.24.06.5.16.75.3v1.72ZM148.37,96.68v5.62h-1.31v-.6c-.3.29-.58.49-.83.6s-.55.17-.89.17c-.38,0-.74-.08-1.07-.23-.33-.15-.61-.36-.85-.63s-.43-.58-.56-.95c-.13-.36-.2-.76-.2-1.19s.07-.82.2-1.18.32-.67.55-.93c.24-.26.52-.47.84-.61.32-.15.67-.22,1.05-.22s.68.06.94.18c.26.12.54.33.82.63v-.66h1.31ZM145.54,97.7c-.22,0-.43.04-.62.13-.19.09-.36.21-.5.37-.14.16-.25.35-.33.56-.08.22-.12.45-.12.71,0,.53.15.96.44,1.3s.66.51,1.12.51c.48,0,.87-.17,1.17-.5.3-.33.45-.76.45-1.29s-.15-.96-.44-1.3c-.29-.33-.68-.5-1.17-.5ZM152.87,102.29h-1.31v-4.4h-.55v-1.21h.55v-2.05h1.31v2.05h1.01v1.21h-1.01v4.4ZM156.87,93.5c.24,0,.44.08.61.25s.25.36.25.59-.08.43-.25.6c-.17.17-.36.25-.59.25s-.44-.08-.61-.25c-.17-.17-.25-.37-.25-.6s.08-.43.25-.59c.16-.17.36-.25.59-.25ZM157.54,102.29h-1.31v-5.62h1.31v5.62ZM163.2,96.53c.43,0,.82.08,1.18.23s.68.36.95.63.48.58.63.94c.16.36.23.75.23,1.17s-.08.81-.23,1.17c-.16.37-.37.68-.63.95s-.58.48-.95.63c-.37.15-.77.23-1.19.23s-.81-.08-1.17-.23c-.36-.16-.68-.37-.95-.63-.27-.27-.48-.58-.63-.95-.15-.37-.23-.77-.23-1.19,0-.4.08-.78.23-1.13.16-.36.37-.67.64-.93s.59-.48.95-.63c.36-.15.75-.23,1.16-.23ZM163.2,97.7c-.5,0-.9.16-1.21.49-.31.33-.46.75-.46,1.28,0,.56.15,1,.46,1.33.3.33.71.49,1.22.49s.92-.16,1.23-.49c.31-.33.46-.76.46-1.3s-.15-.98-.46-1.31c-.31-.33-.72-.49-1.23-.49ZM170.21,96.68v.53c.25-.26.49-.44.71-.53.22-.09.5-.14.82-.14.36,0,.68.07.98.21.29.14.52.32.68.55.12.19.21.4.27.64s.08.55.08.92v3.44h-1.31v-3.13c0-.29-.01-.52-.03-.67-.02-.16-.07-.29-.14-.39-.17-.27-.46-.4-.86-.4-.44,0-.75.14-.93.43s-.27.77-.27,1.46v2.7h-1.31v-5.62h1.31ZM186.72,99.28c.13-.15.25-.28.35-.39s.18-.21.26-.3c.08-.09.14-.17.2-.24s.12-.15.18-.23l.88.91c-.09.13-.21.28-.35.45-.15.17-.38.43-.7.77l1.65,2.04h-1.67l-.89-1.08c-.12.12-.24.23-.35.33s-.24.19-.39.3c-.34.23-.64.39-.89.49-.26.09-.56.14-.89.14-.4,0-.77-.07-1.11-.2-.34-.13-.64-.32-.89-.55-.25-.24-.45-.51-.59-.83-.14-.32-.21-.67-.21-1.04,0-.79.35-1.47,1.05-2.03.03-.03.05-.05.07-.07s.06-.04.1-.07.11-.08.19-.13.2-.14.35-.23c.07-.04.12-.07.13-.09.02-.01.05-.04.09-.09-.58-.63-.87-1.25-.87-1.85s.19-1.09.58-1.47c.39-.37.9-.56,1.54-.56.3,0,.58.05.84.15s.48.23.67.4.33.37.44.61c.11.24.16.5.16.78,0,.19-.02.36-.07.53s-.13.34-.25.51-.27.34-.47.53c-.2.18-.44.38-.72.59l1.6,1.93ZM184.07,98.1c-.29.2-.54.37-.73.53-.19.16-.34.29-.46.42-.12.12-.2.25-.24.37-.04.12-.07.25-.07.38,0,.19.04.37.12.54.08.17.19.33.33.47s.29.25.47.33.35.12.54.12c.28,0,.55-.08.83-.24s.6-.42.95-.77l-1.75-2.13ZM184.34,96.4c.22-.17.4-.31.53-.42.13-.11.24-.21.31-.3s.12-.17.14-.25c.02-.08.03-.17.03-.28,0-.23-.08-.42-.24-.57s-.37-.22-.63-.22c-.24,0-.44.07-.61.22-.16.15-.25.33-.25.55,0,.12.03.26.08.39.05.14.13.26.23.38.09.11.16.19.2.25.04.06.08.1.11.13s.05.05.06.07c.01.01.02.03.03.05ZM197.82,92.73l3.05,6.91,3.16-6.91,1.68,9.57h-1.37l-.85-5.36-2.63,5.78-2.56-5.79-.96,5.38h-1.39l1.87-9.57ZM209.33,93.5c.24,0,.44.08.61.25s.25.36.25.59-.08.43-.25.6c-.17.17-.36.25-.59.25s-.44-.08-.61-.25c-.17-.17-.25-.37-.25-.6s.08-.43.25-.59c.16-.17.36-.25.59-.25ZM210,102.29h-1.31v-5.62h1.31v5.62ZM218.43,102.16c0,.28,0,.52-.03.72-.02.21-.04.39-.08.55-.04.17-.08.31-.15.45-.06.13-.14.27-.23.4-.24.34-.56.6-.95.79-.39.19-.82.29-1.29.29s-.91-.09-1.31-.27-.72-.43-.96-.74c-.13-.18-.24-.37-.31-.58s-.13-.5-.17-.87h1.27c.06.27.13.47.2.61.07.14.17.26.31.36.29.21.61.32.96.32.25,0,.48-.05.69-.15s.37-.24.49-.42c.17-.26.25-.64.25-1.17v-.8c-.27.29-.54.5-.83.62-.29.13-.6.19-.95.19-.37,0-.72-.07-1.04-.22s-.6-.35-.83-.61c-.24-.26-.42-.57-.55-.93-.13-.36-.19-.75-.19-1.17s.07-.84.2-1.2c.13-.36.32-.68.55-.95s.51-.48.83-.63.67-.23,1.05-.23c.7,0,1.29.26,1.76.8v-.65h1.31v5.48ZM215.6,97.7c-.47,0-.85.16-1.13.49-.28.33-.42.76-.42,1.31,0,.31.04.57.11.78.08.21.19.4.36.56.15.15.32.26.51.34.19.08.38.11.58.11.47,0,.85-.17,1.15-.5.29-.33.44-.76.44-1.29s-.15-.97-.44-1.3c-.29-.33-.67-.5-1.15-.5ZM222.79,96.68v.51c.24-.26.45-.44.63-.53.18-.09.4-.14.66-.14.2,0,.38.02.53.07.15.05.33.14.55.28l-.6,1.2c-.15-.11-.28-.18-.37-.22s-.21-.06-.35-.06c-.37,0-.63.13-.8.39-.17.26-.25.67-.25,1.22v2.9h-1.31v-5.62h1.31ZM232.57,96.68v5.62h-1.31v-.6c-.3.29-.58.49-.83.6s-.55.17-.89.17c-.38,0-.74-.08-1.07-.23-.33-.15-.61-.36-.85-.63s-.43-.58-.56-.95c-.13-.36-.2-.76-.2-1.19s.07-.82.2-1.18.32-.67.55-.93c.24-.26.52-.47.84-.61.32-.15.67-.22,1.05-.22s.68.06.94.18c.26.12.54.33.82.63v-.66h1.31ZM229.74,97.7c-.22,0-.43.04-.62.13-.19.09-.36.21-.5.37-.14.16-.25.35-.33.56-.08.22-.12.45-.12.71,0,.53.15.96.44,1.3s.66.51,1.12.51c.48,0,.87-.17,1.17-.5.3-.33.45-.76.45-1.29s-.15-.96-.44-1.3c-.29-.33-.68-.5-1.17-.5ZM237.07,102.29h-1.31v-4.4h-.55v-1.21h.55v-2.05h1.31v2.05h1.01v1.21h-1.01v4.4ZM241.07,93.5c.24,0,.44.08.61.25s.25.36.25.59-.08.43-.25.6c-.17.17-.36.25-.59.25s-.44-.08-.61-.25c-.17-.17-.25-.37-.25-.6s.08-.43.25-.59c.16-.17.36-.25.59-.25ZM241.74,102.29h-1.31v-5.62h1.31v5.62ZM247.4,96.53c.43,0,.82.08,1.18.23s.68.36.95.63.48.58.63.94c.16.36.23.75.23,1.17s-.08.81-.23,1.17c-.16.37-.37.68-.63.95s-.58.48-.95.63c-.37.15-.77.23-1.19.23s-.81-.08-1.17-.23c-.36-.16-.68-.37-.95-.63-.27-.27-.48-.58-.63-.95-.15-.37-.23-.77-.23-1.19,0-.4.08-.78.23-1.13.16-.36.37-.67.64-.93s.59-.48.95-.63c.36-.15.75-.23,1.16-.23ZM247.4,97.7c-.5,0-.9.16-1.21.49-.31.33-.46.75-.46,1.28,0,.56.15,1,.46,1.33.3.33.71.49,1.22.49s.92-.16,1.23-.49c.31-.33.46-.76.46-1.3s-.15-.98-.46-1.31c-.31-.33-.72-.49-1.23-.49ZM254.42,96.68v.53c.25-.26.49-.44.71-.53.22-.09.5-.14.82-.14.36,0,.68.07.98.21.29.14.52.32.68.55.12.19.21.4.27.64s.08.55.08.92v3.44h-1.31v-3.13c0-.29-.01-.52-.03-.67-.02-.16-.07-.29-.14-.39-.17-.27-.46-.4-.86-.4-.44,0-.75.14-.93.43s-.27.77-.27,1.46v2.7h-1.31v-5.62h1.31ZM269.79,95.37c-.21-.34-.4-.57-.59-.69-.19-.12-.44-.19-.75-.19-.38,0-.69.11-.93.32-.25.21-.37.48-.37.79s.14.55.43.75c.06.04.12.08.17.11.05.03.12.06.21.1.09.04.21.09.37.16.16.07.39.16.68.29.72.3,1.25.66,1.59,1.08.33.42.5.93.5,1.55,0,.41-.07.79-.21,1.13-.14.35-.34.65-.59.9-.25.25-.56.45-.91.59-.35.14-.73.21-1.14.21-.49,0-.93-.1-1.33-.31-.4-.2-.73-.5-.99-.88-.15-.21-.26-.42-.34-.63-.08-.2-.14-.48-.18-.81l1.36-.31c.04.27.07.47.1.6.03.13.08.26.15.37.12.21.29.38.52.51.23.12.49.19.76.19.43,0,.78-.14,1.05-.42.27-.28.41-.63.41-1.06,0-.5-.2-.89-.61-1.17-.08-.05-.15-.1-.2-.13s-.13-.07-.22-.11c-.09-.04-.22-.1-.39-.17-.16-.07-.4-.17-.7-.29-1.22-.51-1.83-1.26-1.83-2.25,0-.34.07-.65.2-.94s.32-.54.56-.75.52-.37.85-.49c.33-.12.68-.18,1.06-.18.53,0,.99.12,1.37.35.38.24.72.62,1.03,1.14l-1.08.65ZM275.03,99.8c.04.46.18.82.44,1.09.26.27.6.4,1.01.4.33,0,.6-.08.81-.23.21-.16.45-.44.71-.86l1.09.61c-.15.25-.28.44-.38.58s-.23.26-.38.39c-.25.22-.54.4-.87.51s-.67.18-1.03.18c-.42,0-.8-.07-1.14-.21s-.63-.34-.87-.6c-.24-.26-.42-.57-.55-.93-.13-.37-.2-.77-.2-1.21s.06-.85.19-1.22c.13-.37.31-.68.54-.94s.52-.46.85-.6c.33-.14.7-.21,1.11-.21.46,0,.89.1,1.29.3.4.2.7.47.93.81.3.48.45,1.1.45,1.85v.31h-4.02ZM277.73,98.74c-.09-.34-.25-.6-.47-.77-.22-.18-.5-.27-.84-.27-.31,0-.58.09-.82.28-.24.19-.39.44-.47.76h2.6ZM283.12,96.68v.51c.24-.26.45-.44.63-.53.18-.09.4-.14.66-.14.2,0,.38.02.53.07.15.05.33.14.55.28l-.6,1.2c-.15-.11-.28-.18-.37-.22s-.21-.06-.35-.06c-.37,0-.63.13-.8.39-.17.26-.25.67-.25,1.22v2.9h-1.31v-5.62h1.31ZM290.19,99.82l1.44-3.15h1.46l-2.91,6-2.9-6h1.46l1.45,3.15ZM296.03,93.5c.24,0,.44.08.61.25s.25.36.25.59-.08.43-.25.6c-.17.17-.36.25-.59.25s-.44-.08-.61-.25c-.17-.17-.25-.37-.25-.6s.08-.43.25-.59c.16-.17.36-.25.59-.25ZM296.7,102.29h-1.31v-5.62h1.31v5.62ZM304,98.64c-.3-.36-.57-.6-.8-.74s-.5-.2-.81-.2c-.25,0-.48.05-.69.14-.21.09-.39.22-.54.38s-.27.35-.35.56c-.08.22-.13.45-.13.71s.04.51.13.73c.08.22.2.41.35.57.15.16.32.28.53.37.21.09.43.13.67.13.32,0,.6-.07.83-.2.23-.14.5-.39.81-.76v1.72c-.29.15-.56.26-.79.32s-.5.09-.8.09c-.44,0-.84-.08-1.21-.23-.37-.15-.69-.36-.96-.62s-.49-.57-.64-.93-.23-.75-.23-1.17.08-.81.24-1.17c.16-.37.37-.68.65-.95.27-.27.6-.48.97-.63.37-.16.77-.23,1.2-.23.3,0,.58.03.82.09.24.06.5.16.75.3v1.72ZM307.79,99.8c.04.46.18.82.44,1.09.26.27.6.4,1.01.4.33,0,.6-.08.81-.23.21-.16.45-.44.71-.86l1.09.61c-.15.25-.28.44-.38.58s-.23.26-.38.39c-.25.22-.54.4-.87.51s-.67.18-1.03.18c-.42,0-.8-.07-1.14-.21s-.63-.34-.87-.6c-.24-.26-.42-.57-.55-.93-.13-.37-.2-.77-.2-1.21s.06-.85.19-1.22c.13-.37.31-.68.54-.94s.52-.46.85-.6c.33-.14.7-.21,1.11-.21.46,0,.89.1,1.29.3.4.2.7.47.93.81.3.48.45,1.1.45,1.85v.31h-4.02ZM310.48,98.74c-.09-.34-.25-.6-.47-.77-.22-.18-.5-.27-.84-.27-.31,0-.58.09-.82.28-.24.19-.39.44-.47.76h2.6ZM316.77,98.22c-.18-.35-.39-.52-.64-.52-.12,0-.23.04-.31.11s-.12.17-.12.29c0,.12.05.23.15.31.1.08.3.19.6.33.28.13.5.24.65.32.15.08.29.16.41.25.45.3.68.72.68,1.26,0,.27-.05.51-.15.75-.1.23-.24.43-.42.6-.18.17-.39.3-.63.4s-.5.15-.79.15c-.94,0-1.61-.47-2-1.4l1.11-.51c.15.28.29.48.42.58.13.1.29.15.49.15s.37-.06.49-.17c.12-.11.18-.25.18-.43,0-.1-.01-.18-.03-.24s-.08-.13-.16-.19c-.08-.07-.21-.14-.39-.23-.17-.09-.41-.21-.71-.36-.42-.2-.71-.41-.86-.62-.16-.21-.23-.49-.23-.83,0-.24.04-.46.13-.67.09-.21.21-.39.37-.54.16-.15.34-.27.55-.35.21-.08.44-.13.69-.13.37,0,.69.09.94.27.25.18.47.46.66.85l-1.07.57Z"/>
          <g>
            <circle class="cls-9" cx="242.95" cy="30.99" r="7.32"/>
            <path class="cls-13" d="M242.86,24.11c-3.48,0-6.34,2.59-6.79,5.98h0v.89c0,3.75,3.04,6.87,6.87,6.87s6.87-3.04,6.87-6.87c-.09-3.84-3.21-6.87-6.96-6.87ZM243.12,36.61c-.18.18-.45.27-.54.18-.18-.09,0-.27,0-.54s-.09-.54.18-.54c.18-.09.27.09.45.18.09.18.18.54-.09.71ZM245.36,34.74c-.27.18-.45.09-.71.18-.54.09-.98.36-1.34,0-.18-.18-.18-.27-.36-.54-.27-.27-.27-.8-.62-.71-.27.09-.27.27-.36.54-.18.27-.09.62-.45.62-.18,0-.36-.09-.54-.18-.18-.09-.27-.27-.45-.45s-.36-.18-.54-.27-.18-.27-.36-.27-.27.09-.36.18c-.18.27-.18.98-.62.98-.36,0-1.07-.71-1.25-.89-.09-.09-.18-.09-.27-.18-.36-.8-.62-1.7-.62-2.59.09-.09.27-.18.36-.36.18-.27.09-.54.36-.71.18-.09.36-.09.62-.18.36,0,.54-.09.89,0,.27.09.45.27.71.45s.45.36.8.45c.27.09.45-.18.62-.09.18.09.27.27.27.45,0,.27-.54.09-.54.36-.09.36.54,0,.8.09s.45.09.54.27c0,.27-.36.18-.54.27-.27.09-.36.18-.62.27-.27.09-.45-.09-.62.09-.09.18-.09.27,0,.45.18.45.71.27,1.16.18.27-.09.36-.36.62-.54.27-.09.54-.27.89-.09.27.09.18.45.45.54.27.18.54-.18.8,0,.18.09.18.36.36.54.18.18.27.36.54.45.27.09.45-.27.71-.18.18.09.36.18.45.36-.18.27-.54.45-.8.54ZM245.8,31.34c-.27.27-.45.36-.8.45-.27.09-.71.27-.8,0s.27-.36.45-.54c.18-.18.45-.18.62-.45.18-.18.18-.45.45-.54s.45,0,.62.18c.09.36-.27.62-.54.89ZM248.84,30.36c-.09.09-.09.27-.18.36-.09.09-.27.09-.36.18-.09.09,0,.27,0,.36s-.45.27-.54.09c-.09-.09.09-.18,0-.27s-.09-.09-.18,0-.18.18-.27.27c-.09.09,0-.45-.09-.62,0-.18,0-.27.09-.36.09-.18.18-.27.27-.45.09-.18,0-.27,0-.45v-.45c-.09-.18-.09-.36-.18-.54-.09-.09-.09-.18-.27-.27,0,0-.09,0-.09-.09h-.27c-.18,0-.36.09-.54,0q-.09-.09-.18-.18c-.09-.09-.09-.18-.18-.27s-.09-.09-.18-.09c-.18-.09-.27,0-.45.09s-.27.18-.36.27-.18.09-.27.18c-.09.09-.36.27-.45.27s-.18-.09-.27-.09h-.09c-.09,0-.18.09-.27.09-.27.09-.36,0-.62,0-.18.09-.27.18-.36.18-.18,0-.27-.18-.45-.18-.09,0-.18-.09-.27-.09-.18,0-.27,0-.45-.09h-.18c-.09-.09-.18-.09-.27-.18-.09-.09-.18-.09-.36-.09v-.36c0-.09-.09-.09,0-.27s.09-.27.09-.27q.09-.09.18-.09c.09-.09.18-.18.18-.36s-.27-.27-.18-.54c.09-.18.18-.18.36-.36.18-.09.36-.18.45-.36.09-.09.18-.18.18-.36s-.09-.27-.09-.36c.36-.09.8-.09,1.16-.09,3.21,0,5.8,2.32,6.34,5.36-.09.09,0,.18-.09.27-.09.09-.27.09-.36.18Z"/>
          </g>
          <g>
            <g class="cls-28">
              <g class="cls-29">
                <path class="cls-9" d="M94.87,6.31c-43.88,12.68-40.39,88.09-40.18,88.1-.41.08-56.21-76.11-42.5-18.92,1.12,4.47-9.78-26.62-4.22-35.39,2.13-3.38,6.71-4.14,15.92,1.24,7.77,4.48,14.66,11.06,19.06,14.54C64.52,10.2,98.71,5.18,94.87,6.31h0Z"/>
                <path class="cls-8" d="M54.49,93.93c-.13-.14-.21-.3-.34-.39-.44-.56-.88-1.17-1.32-1.73-1.51-1.96-3.01-3.9-4.59-5.84-4.4-5.58-8.81-11.02-13.34-16.08-4.15-4.77-8.71-9.64-13.31-13.45-2.24-1.83-6.83-5.38-9.6-4.14-2.12.92-2.44,4.09-2.47,6.26-.05,2.24.24,4.59.59,6.85.42,3.08,1.08,6.19,1.8,9.28-.59-1.67-1.46-4.64-1.66-5.16-1.15-4.29-2.22-8.56-2.91-12.79-.78-4.71-1.75-12.67.73-16.59,3.34-5.27,11.37-1.31,15.76,1.24,3.73,2.17,7.27,4.82,10.76,7.63,2.73,2.25,5.49,4.69,8.27,6.94l.13.11.08-.15c7.77-16.31,18.57-31.08,33.25-40.99,4-2.69,8.42-5.12,13.06-6.95.91-.34,1.88-.66,2.83-.99-6.82,2.43-12.53,6.24-17.26,11.17-3.36,3.54-6.15,7.55-8.52,11.85-6.35,11.77-9.74,26.41-11.22,41.1-.53,5.37-.88,10.85-.89,16.49-.03,1.67,0,3.31.1,4.97.03.43.04.86.05,1.37h.03Z"/>
                <path class="cls-11" d="M54.3,93.47s-.02,0-.02-.06c-.49-.59-.93-1.15-1.42-1.75-1.48-1.96-3.04-3.94-4.58-5.85-4.37-5.58-8.79-10.97-13.27-16.06-4.17-4.7-8.72-9.62-13.37-13.39-2.29-1.88-6.87-5.41-9.68-4.19-2.17.92-2.5,4.15-2.59,6.38-.02,2.24.25,4.61.57,6.9.37,2.15.73,4.31,1.2,6.48-.29-.84-.54-1.72-.8-2.57-1.17-4.21-2.17-8.48-2.86-12.64-.82-4.67-1.75-12.62.73-16.47,3.25-5.19,11.25-1.22,15.56,1.25,3.71,2.18,7.27,4.81,10.69,7.63,2.76,2.24,5.49,4.66,8.28,6.92l.31.24.1-.28c7.76-16.28,18.55-30.97,33.14-40.88,2.96-2.04,6.18-3.9,9.57-5.5-4.13,2.21-7.85,5.08-11,8.41-3.39,3.53-6.19,7.59-8.59,11.91-6.33,11.76-9.73,26.38-11.24,41.12-.52,5.3-.88,10.86-.89,16.51,0,1.64-.02,3.3.06,4.93.07.33.05.63.08.95h0Z"/>
                <path class="cls-24" d="M54.14,93.01c-.44-.51-.77-1.02-1.19-1.48-1.52-2.03-3.09-3.94-4.56-5.85-4.42-5.56-8.81-10.92-13.3-15.99-4.17-4.77-8.74-9.65-13.37-13.46-2.33-1.93-6.94-5.47-9.85-4.18-2.22.94-2.57,4.21-2.61,6.47-.05,2.25.24,4.64.56,6.94.17,1.18.36,2.37.65,3.62-1.22-4.11-2.2-8.31-2.9-12.38-.76-4.62-1.69-12.52.71-16.37,3.29-5.16,11.17-1.17,15.43,1.32,3.73,2.16,7.23,4.79,10.68,7.59,2.78,2.23,5.47,4.65,8.34,6.93l.42.36.17-.43c7.68-16.24,18.44-30.93,32.94-40.77,1.98-1.34,4.02-2.61,6.15-3.77-2.82,1.85-5.36,3.99-7.68,6.4-3.37,3.54-6.17,7.56-8.54,11.94-6.37,11.73-9.77,26.37-11.27,41.15-.55,5.33-.89,10.87-.89,16.48,0,1.68,0,3.31.05,5.02.02.13.05.3.06.46h0Z"/>
                <path class="cls-1" d="M53.97,92.58c-.34-.4-.64-.78-.95-1.2-1.52-1.96-3.05-3.9-4.56-5.83-4.38-5.57-8.79-10.91-13.28-15.95-4.2-4.72-8.69-9.64-13.37-13.5-2.43-1.92-6.98-5.46-10-4.18-2.27.94-2.66,4.27-2.69,6.59-.04,2.26.24,4.68.56,6.98.05.31.08.62.17.92-.86-3.25-1.59-6.49-2.15-9.69-.74-4.59-1.71-12.53.7-16.32,3.24-5.03,11.1-1.07,15.29,1.35,3.7,2.15,7.17,4.8,10.66,7.59,2.75,2.24,5.49,4.69,8.3,6.98l.54.41.25-.54c7.67-16.2,18.4-30.83,32.84-40.71,1.17-.78,2.42-1.61,3.66-2.34-1.88,1.45-3.66,3.04-5.3,4.78-3.37,3.53-6.22,7.57-8.54,11.9-6.41,11.79-9.8,26.45-11.32,41.18-.55,5.38-.86,10.89-.89,16.55-.02,1.65,0,3.3.07,4.96,0,.03,0,.06.02.1h0Z"/>
                <path class="cls-14" d="M53.76,92.13c-.2-.3-.41-.6-.65-.87-1.52-1.99-3.07-3.92-4.59-5.83-4.34-5.55-8.74-10.87-13.18-15.9-4.2-4.79-8.78-9.7-13.43-13.52-2.48-2.01-7.1-5.54-10.14-4.24-2.3,1.03-2.75,4.35-2.73,6.68-.05,1.83.07,3.7.3,5.53-.56-2.44-1.07-4.88-1.51-7.3-.76-4.55-1.69-12.43.7-16.18,3.15-5.01,11-1.03,15.08,1.36,3.71,2.15,7.2,4.8,10.66,7.58,2.73,2.24,5.46,4.69,8.27,6.95l.68.56.37-.71c7.65-16.15,18.32-30.72,32.72-40.59.58-.37,1.14-.77,1.71-1.16-1.23,1.03-2.39,2.12-3.51,3.31-3.41,3.56-6.2,7.56-8.57,11.95-6.42,11.8-9.76,26.46-11.33,41.22-.55,5.35-.88,10.89-.91,16.52,0,1.53.03,3.09.06,4.65h0Z"/>
                <path class="cls-6" d="M53.62,91.65c-.16-.15-.25-.32-.43-.48-1.52-2.01-3.05-3.92-4.59-5.89-4.34-5.54-8.73-10.86-13.17-15.92-4.22-4.71-8.79-9.6-13.45-13.43-2.51-2.07-7.19-5.62-10.29-4.23-2.39,1-2.78,4.34-2.85,6.81.02,1.1.02,2.21.13,3.4-.37-1.74-.71-3.5-1-5.22-.74-4.49-1.73-12.39.65-16.11,3.08-4.96,10.89-.94,14.93,1.4,3.65,2.13,7.22,4.81,10.61,7.57,2.76,2.26,5.47,4.71,8.3,6.97l.79.62.46-.85c7.63-16.09,18.28-30.67,32.63-40.5,0,0,.02-.06.05-.04-.66.61-1.36,1.28-1.95,1.91-3.47,3.57-6.29,7.64-8.64,11.99-6.39,11.82-9.82,26.49-11.36,41.29-.51,5.34-.86,10.87-.88,16.53,0,1.41.03,2.82.05,4.19h0Z"/>
                <path class="cls-23" d="M53.42,91.27c-.03-.06-.09-.17-.15-.25-1.52-1.97-3.09-3.93-4.58-5.83-4.38-5.53-8.77-10.81-13.21-15.9-4.22-4.75-8.76-9.65-13.46-13.45-2.53-2.12-7.24-5.67-10.39-4.32-2.42,1.07-2.83,4.42-2.91,6.92.02.62.04,1.17.02,1.72-.24-1.17-.49-2.35-.64-3.49-.75-4.49-1.71-12.34.64-16.06,3.05-4.84,10.76-.81,14.74,1.5,3.68,2.13,7.17,4.74,10.57,7.53,2.78,2.24,5.47,4.68,8.32,6.96l.98.78.49-1c7.31-15.59,17.48-29.67,31.09-39.48-.2.24-.44.42-.66.7-3.41,3.55-6.25,7.6-8.61,11.95-6.41,11.85-9.84,26.53-11.39,41.3-.51,5.38-.86,10.95-.9,16.57-.04,1.27.03,2.55.03,3.84h0Z"/>
                <path class="cls-22" d="M53.31,90.8c-1.55-1.91-3.01-3.82-4.52-5.73-4.38-5.49-8.74-10.83-13.19-15.81-4.22-4.74-8.83-9.72-13.5-13.53-2.56-2.17-7.33-5.71-10.51-4.33-2.49,1.06-2.95,4.45-3,7.07.02.09,0,.2.02.27-.15-.68-.27-1.36-.37-2.1-.74-4.4-1.71-12.24.63-15.9,3-4.8,10.69-.79,14.56,1.46,3.68,2.16,7.15,4.77,10.57,7.58,2.78,2.26,5.47,4.65,8.32,6.94l1.1.92.54-1.14c7.06-15.04,16.83-28.69,29.76-38.46-3.22,3.44-5.85,7.35-8.13,11.49-6.46,11.83-9.81,26.54-11.37,41.34-.58,5.37-.9,10.92-.92,16.57,0,1.13-.02,2.27.03,3.39h0Z"/>
                <path class="cls-20" d="M53.13,90.41c-1.43-1.86-2.85-3.63-4.22-5.46-4.41-5.47-8.77-10.81-13.22-15.81-4.23-4.78-8.81-9.7-13.52-13.53-2.6-2.17-7.34-5.74-10.64-4.31-2.24.96-2.87,3.76-3.04,6.27,0-.33-.1-.66-.12-.93-.73-4.39-1.71-12.24.58-15.87,3-4.7,10.6-.65,14.44,1.52,3.63,2.16,7.17,4.73,10.54,7.55,2.76,2.24,5.47,4.69,8.32,6.96l1.24.98.61-1.28c6.85-14.51,16.17-27.76,28.45-37.41-2.75,3.14-5.09,6.63-7.14,10.33-6.39,11.81-9.81,26.54-11.35,41.34-.57,5.4-.92,10.97-.96,16.62.02.97,0,2.02.04,3.02h0Z"/>
                <path class="cls-25" d="M52.96,89.97c-1.3-1.73-2.65-3.44-4.04-5.12-4.34-5.47-8.67-10.8-13.15-15.78-4.22-4.81-8.79-9.72-13.52-13.58-2.67-2.21-7.48-5.75-10.78-4.34-1.98.86-2.76,3.16-3,5.39-.73-4.37-1.64-12.12.56-15.7,2.95-4.62,10.57-.57,14.29,1.61,3.65,2.13,7.14,4.71,10.52,7.45,2.76,2.28,5.49,4.76,8.29,7.05l1.47,1.07.63-1.37c6.64-14.08,15.54-26.98,27.27-36.5-2.34,2.83-4.41,5.94-6.2,9.24-6.42,11.8-9.8,26.56-11.38,41.39-.6,5.35-.88,10.86-.96,16.58.02.84.05,1.72,0,2.61h0Z"/>
                <path class="cls-16" d="M52.84,89.56c-1.3-1.61-2.51-3.23-3.82-4.82-4.34-5.5-8.71-10.79-13.13-15.79-4.25-4.75-8.83-9.72-13.54-13.57-2.79-2.25-7.58-5.82-10.97-4.34-1.74.77-2.58,2.65-2.9,4.63-.74-4.4-1.44-11.45.68-14.77,2.87-4.53,10.46-.49,14.12,1.64,3.61,2.15,7.11,4.75,10.51,7.51,2.73,2.25,5.47,4.69,8.3,6.98l1.51,1.21.75-1.55c6.43-13.61,15-26.1,26.13-35.54-1.97,2.58-3.71,5.28-5.27,8.14-6.48,11.87-9.88,26.6-11.46,41.42-.54,5.4-.86,10.98-.93,16.62.03.75,0,1.48.03,2.24h0Z"/>
                <path class="cls-17" d="M52.68,89.14c-1.19-1.52-2.38-3.04-3.52-4.49-4.43-5.48-8.75-10.76-13.18-15.78-4.25-4.81-8.81-9.73-13.57-13.58-2.8-2.32-7.61-5.86-11.07-4.38-1.61.68-2.44,2.25-2.85,4.03-.64-4.4-1.2-10.81.76-13.96.27-.37.53-.65.78-.95,3.17-2.83,9.94.73,13.17,2.62,3.64,2.14,7.1,4.73,10.51,7.5,2.74,2.26,5.45,4.71,8.29,6.98l1.69,1.31.79-1.7c6.17-13.19,14.44-25.3,25.08-34.62-1.66,2.27-3.15,4.63-4.49,7.1-6.49,11.87-9.92,26.62-11.49,41.46-.55,5.38-.86,10.96-.89,16.6-.02.66,0,1.23,0,1.86h0Z"/>
                <path class="cls-2" d="M52.52,88.73c-1.09-1.43-2.19-2.79-3.28-4.2-4.35-5.42-8.71-10.76-13.16-15.75-4.24-4.8-8.88-9.73-13.61-13.61-2.8-2.34-7.66-5.84-11.17-4.4-1.48.65-2.34,1.96-2.78,3.5-.63-4.35-1-10.25.85-13.2.27-.33.47-.66.79-.94,3.05-2.78,9.86.83,12.98,2.66,3.65,2.11,7.1,4.68,10.42,7.46,2.85,2.26,5.47,4.74,8.37,7.01l1.75,1.43.91-1.86c5.99-12.77,13.89-24.53,24.04-33.71-1.37,1.93-2.58,3.94-3.71,6.04-6.49,11.87-9.93,26.6-11.49,41.47-.56,5.4-.87,10.99-.91,16.64-.02.49.02.96,0,1.45h0Z"/>
                <path class="cls-18" d="M52.38,88.33c-.99-1.34-2.06-2.62-3.1-3.91-4.3-5.46-8.67-10.72-13.12-15.73-4.22-4.78-8.86-9.73-13.61-13.6-2.9-2.38-7.76-5.95-11.3-4.4-1.37.55-2.19,1.72-2.7,3.05-.56-4.24-.81-9.78.93-12.53.25-.4.46-.66.78-.95,2.98-2.71,9.74.9,12.8,2.65,3.69,2.13,7.12,4.73,10.46,7.49,2.78,2.25,5.49,4.69,8.35,6.99l1.88,1.54.97-1.99c5.79-12.35,13.42-23.78,23.11-32.77-1.08,1.56-2.06,3.22-3.03,4.94-6.45,11.88-9.92,26.67-11.5,41.51-.53,5.42-.85,10.97-.89,16.66-.05.35-.04.74-.02,1.08h0Z"/>
                <path class="cls-4" d="M52.24,87.9c-.95-1.22-1.93-2.39-2.85-3.56-4.37-5.45-8.67-10.73-13.15-15.72-4.24-4.84-8.85-9.78-13.59-13.67-2.95-2.39-7.85-5.96-11.47-4.4-1.24.53-2.04,1.52-2.56,2.65-.49-4.12-.66-9.33.98-11.95.19-.33.44-.62.71-.91,2.98-2.71,9.71.91,12.68,2.65,3.64,2.16,7.08,4.72,10.47,7.47,2.73,2.24,5.47,4.71,8.3,7l2.05,1.66,1.03-2.14c5.57-11.95,12.94-23.02,22.13-31.91-.81,1.29-1.57,2.58-2.34,3.9-6.44,11.9-9.91,26.69-11.46,41.6-.6,5.38-.93,10.95-.95,16.64-.03.23-.02.44,0,.69h0Z"/>
                <path class="cls-7" d="M52.08,87.47c-.86-1.07-1.73-2.16-2.58-3.24-4.36-5.48-8.71-10.75-13.08-15.75-4.34-4.8-8.95-9.76-13.68-13.63-3.04-2.47-7.97-6.03-11.61-4.45-1.12.48-1.9,1.31-2.42,2.3-.44-4-.56-8.91,1-11.38.22-.34.42-.66.74-.92,2.91-2.61,9.62.98,12.53,2.67,3.63,2.13,7.07,4.74,10.37,7.43,2.78,2.3,5.49,4.74,8.34,7.06l2.24,1.73,1.05-2.27c5.46-11.57,12.46-22.34,21.25-31.03-.54.96-1.12,1.94-1.7,2.92-6.45,11.91-9.92,26.67-11.53,41.61-.5,5.38-.87,10.95-.91,16.65,0,.12.02.19,0,.28h0Z"/>
                <path class="cls-5" d="M51.94,87.07c-.76-.99-1.56-2-2.34-2.96-4.36-5.46-8.72-10.72-13.14-15.7-4.23-4.81-8.9-9.79-13.66-13.64-3.07-2.5-8.04-6.1-11.76-4.49-.98.41-1.68,1.17-2.24,2.04-.42-3.94-.54-8.51.99-10.92.2-.35.44-.64.7-.86,2.9-2.57,9.57,1.01,12.4,2.66,3.59,2.15,7.07,4.75,10.39,7.44,2.78,2.3,5.51,4.74,8.34,7.02l2.34,1.93,1.14-2.46c5.3-11.2,11.98-21.6,20.38-30.15-.32.6-.68,1.23-1.07,1.86-6.47,11.92-9.95,26.69-11.5,41.66-.58,5.34-.93,10.92-.96,16.57h0Z"/>
                <path class="cls-12" d="M51.84,86.67c-.75-.89-1.48-1.79-2.14-2.63-4.35-5.46-8.72-10.76-13.15-15.7-4.27-4.82-8.9-9.79-13.66-13.69-3.12-2.5-8.13-6.15-11.91-4.51-.88.42-1.56,1.03-2.1,1.8-.33-3.79-.37-8.16,1.07-10.48.13-.29.39-.58.65-.82,2.81-2.52,9.5,1.05,12.24,2.71,3.64,2.12,7.06,4.72,10.42,7.45,2.78,2.22,5.47,4.68,8.3,6.97l2.46,2.03,1.22-2.59c5.06-10.81,11.54-20.9,19.53-29.31-.13.3-.3.57-.47.9-6.49,11.91-9.99,26.72-11.54,41.66-.55,5.22-.9,10.7-.9,16.21h0Z"/>
                <path class="cls-10" d="M51.66,86.28c-.61-.78-1.26-1.56-1.87-2.35-4.36-5.44-8.74-10.73-13.14-15.66-4.27-4.9-8.96-9.82-13.71-13.69-3.16-2.59-8.18-6.19-12.02-4.5-.8.31-1.44.86-1.95,1.51-.37-3.72-.32-7.89,1.1-10.04.14-.31.34-.57.63-.78,2.71-2.51,9.34,1.08,12.1,2.7,3.57,2.14,7,4.71,10.35,7.45,2.73,2.25,5.49,4.68,8.3,6.97l2.63,2.15,1.27-2.68c4.92-10.5,11.06-20.27,18.7-28.47-6.42,11.95-9.86,26.65-11.44,41.55-.53,5.18-.9,10.47-.96,15.87h0Z"/>
                <path class="cls-21" d="M51.53,85.87c-.57-.7-1.15-1.34-1.65-2.06-4.35-5.41-8.69-10.69-13.17-15.65-4.29-4.85-8.9-9.82-13.69-13.68-3.23-2.62-8.26-6.25-12.14-4.55-.76.31-1.35.78-1.8,1.32-.32-3.59-.29-7.52,1.03-9.65.2-.24.41-.53.63-.74,2.71-2.46,9.33,1.15,11.98,2.72,3.56,2.08,7,4.69,10.32,7.41,2.78,2.26,5.47,4.7,8.34,6.98l2.76,2.26,1.34-2.89c4.75-10.11,10.67-19.54,17.95-27.57-6.15,11.75-9.45,26.11-11.01,40.62-.5,4.99-.85,10.19-.9,15.48h0Z"/>
              </g>
            </g>
            <path class="cls-26" d="M47.84,40.29c1.25-1.94,2.64-4.02,4.03-5.83,14.3-20.27,31.24-26.25,40.67-27.77-5.55,1.52-10.13,4.15-13.88,7.63-10.55,8.2-22.49,25.97-36.77,64.16-.29.83-.69,1.53-1.25,2.09v.13h0c-3.2,3.89-9.44-14.58-11.12-19.43L14.25,18.49c-3.05-8.75-4.44-11.52-7.34-12.22-1.54-.41-3.48-.56-4.86-.56-.98-.14-1.81-.55-1.95-1.11-.41-.97.56-1.11,1.95-1.11,5.27.14,10.27.69,11.23.69,1.95,0,6.66-.28,13.34-.13,1.37.13,2.35.27,2.63,1.11.27.69-.14,1.11-1.39,1.11-1.66-.14-3.61,0-5.13.56-1.8.69-2.22,3.05.29,10.83l9.84,31.66C40.63,20.85,71.02-16.23,117.64,7.66c-36.07-15.97-54.95,7.36-69.8,32.64h0Z"/>
          </g>
        </g>
      </g>
    </g>
  </g>
</svg>